<mxfile host="app.diagrams.net" modified="2021-01-05T10:23:54.593Z" agent="5.0 (Windows NT 10.0; Win64; x64) AppleWebKit/537.36 (KHTML, like Gecko) Chrome/87.0.4280.88 Safari/537.36" etag="8r0jQ1bz6q4mji0bJxnR" version="14.0.4" type="github">
  <diagram id="iYjn84gbydF3m9eiHrol" name="Page-1">
    <mxGraphModel dx="2249" dy="1931" grid="1" gridSize="10" guides="1" tooltips="1" connect="1" arrows="1" fold="1" page="1" pageScale="1" pageWidth="827" pageHeight="1169" math="0" shadow="0">
      <root>
        <mxCell id="0" />
        <mxCell id="1" parent="0" />
        <mxCell id="VxGcLPcYC0vzYLZDV8K8-2" value="" style="edgeStyle=orthogonalEdgeStyle;rounded=0;orthogonalLoop=1;jettySize=auto;html=1;fontSize=24;" edge="1" parent="1" source="BdOayHVXuTlcWGNxm3zI-1" target="VxGcLPcYC0vzYLZDV8K8-1">
          <mxGeometry relative="1" as="geometry" />
        </mxCell>
        <mxCell id="BdOayHVXuTlcWGNxm3zI-1" value="&lt;font style=&quot;font-size: 22px&quot;&gt;Module-&amp;gt;&lt;br style=&quot;font-size: 22px&quot;&gt;MaAkte aktivieren&lt;br&gt;entsp. XML importieren&lt;br&gt;&lt;/font&gt;" style="rounded=0;whiteSpace=wrap;html=1;fontSize=22;" parent="1" vertex="1">
          <mxGeometry x="140" y="50" width="490" height="90" as="geometry" />
        </mxCell>
        <mxCell id="BdOayHVXuTlcWGNxm3zI-2" value="Dokument Management&lt;br&gt;Datenbox einstellen vornehmen&lt;br&gt;? hier weiß ich nicht genau" style="rounded=0;whiteSpace=wrap;html=1;fontSize=22;" parent="1" vertex="1">
          <mxGeometry x="160" y="370" width="435" height="100" as="geometry" />
        </mxCell>
        <mxCell id="BdOayHVXuTlcWGNxm3zI-3" value="Navigation -&amp;gt;Mainmenü-&amp;gt;Custom Link(Dokumente nennen)&lt;br style=&quot;font-size: 24px&quot;&gt;&lt;div class=&quot;WordSection1&quot; style=&quot;font-size: 24px&quot;&gt;&lt;p class=&quot;MsoNormal&quot; style=&quot;margin: 0cm ; line-height: normal ; font-size: 24px ; font-family: &amp;#34;calibri&amp;#34; , sans-serif&quot;&gt;&lt;b style=&quot;font-size: 24px&quot;&gt;&lt;span lang=&quot;ZH-CN&quot; style=&quot;font-size: 24px ; font-family: &amp;#34;microsoft yahei&amp;#34; , sans-serif&quot;&gt;~/Begis.MaAkte/PayrollPortal#!#mydoc&lt;/span&gt;&lt;/b&gt;&lt;/p&gt;&lt;/div&gt;" style="rounded=0;whiteSpace=wrap;html=1;fontSize=24;" parent="1" vertex="1">
          <mxGeometry x="12.5" y="520" width="730" height="100" as="geometry" />
        </mxCell>
        <mxCell id="BdOayHVXuTlcWGNxm3zI-5" value="" style="endArrow=classic;html=1;fontSize=24;exitX=0.5;exitY=1;exitDx=0;exitDy=0;entryX=0.5;entryY=0;entryDx=0;entryDy=0;" parent="1" source="BdOayHVXuTlcWGNxm3zI-2" target="BdOayHVXuTlcWGNxm3zI-3" edge="1">
          <mxGeometry width="50" height="50" relative="1" as="geometry">
            <mxPoint x="442.5" y="530" as="sourcePoint" />
            <mxPoint x="442.5" y="610" as="targetPoint" />
          </mxGeometry>
        </mxCell>
        <mxCell id="BdOayHVXuTlcWGNxm3zI-6" value="In Datenbox einziger Optionen einstellen" style="rounded=0;whiteSpace=wrap;html=1;fontSize=24;" parent="1" vertex="1">
          <mxGeometry x="105" y="655" width="545" height="100" as="geometry" />
        </mxCell>
        <mxCell id="BdOayHVXuTlcWGNxm3zI-7" value="" style="endArrow=classic;html=1;fontSize=24;entryX=0.5;entryY=0;entryDx=0;entryDy=0;exitX=0.5;exitY=1;exitDx=0;exitDy=0;" parent="1" source="BdOayHVXuTlcWGNxm3zI-3" target="BdOayHVXuTlcWGNxm3zI-6" edge="1">
          <mxGeometry width="50" height="50" relative="1" as="geometry">
            <mxPoint x="382.5" y="810" as="sourcePoint" />
            <mxPoint x="432.5" y="760" as="targetPoint" />
          </mxGeometry>
        </mxCell>
        <mxCell id="BdOayHVXuTlcWGNxm3zI-9" style="edgeStyle=orthogonalEdgeStyle;rounded=0;orthogonalLoop=1;jettySize=auto;html=1;fontSize=24;" parent="1" source="BdOayHVXuTlcWGNxm3zI-8" target="BdOayHVXuTlcWGNxm3zI-1" edge="1">
          <mxGeometry relative="1" as="geometry" />
        </mxCell>
        <mxCell id="BdOayHVXuTlcWGNxm3zI-8" value="DokumenteAPI und DokumentImportService &lt;br&gt;Pakete einspielen(kopie&amp;amp;paste)&lt;br&gt;mit Deployment Tools&lt;br&gt;https://vsp14/WebDeployManagement/" style="rounded=0;whiteSpace=wrap;html=1;fontSize=24;" parent="1" vertex="1">
          <mxGeometry x="91" y="-180" width="588" height="180" as="geometry" />
        </mxCell>
        <mxCell id="VxGcLPcYC0vzYLZDV8K8-3" style="edgeStyle=orthogonalEdgeStyle;rounded=0;orthogonalLoop=1;jettySize=auto;html=1;fontSize=24;entryX=0.52;entryY=-0.01;entryDx=0;entryDy=0;entryPerimeter=0;" edge="1" parent="1" source="VxGcLPcYC0vzYLZDV8K8-1" target="BdOayHVXuTlcWGNxm3zI-2">
          <mxGeometry relative="1" as="geometry">
            <mxPoint x="420" y="360" as="targetPoint" />
          </mxGeometry>
        </mxCell>
        <mxCell id="VxGcLPcYC0vzYLZDV8K8-1" value="&lt;font style=&quot;font-size: 22px;&quot;&gt;Importiere/Exportieren-&amp;gt;Importieren&lt;br style=&quot;font-size: 22px;&quot;&gt;entsp. XML importieren&lt;br style=&quot;font-size: 22px;&quot;&gt;&lt;div class=&quot;WordSection1&quot; style=&quot;font-size: 22px;&quot;&gt;&lt;p class=&quot;MsoNormal&quot; style=&quot;margin: 2pt 0cm; line-height: normal; font-size: 22px; font-family: calibri, sans-serif;&quot;&gt;&lt;span style=&quot;font-size: 22px; font-family: &amp;quot;segoe ui&amp;quot;, sans-serif;&quot;&gt;B:\Produktmanagement\03_Produktunterlagen\07_Einrichtung\03_EinrichtungXML\02_Neu&lt;/span&gt;&lt;span style=&quot;font-size: 22px; font-family: &amp;quot;segoe ui&amp;quot;, sans-serif;&quot;&gt;&lt;/span&gt;&lt;/p&gt;&lt;p class=&quot;MsoNormal&quot; style=&quot;margin: 2pt 0cm; line-height: normal; font-size: 22px; font-family: calibri, sans-serif;&quot;&gt;&lt;span style=&quot;font-size: 22px; font-family: &amp;quot;segoe ui&amp;quot;, sans-serif;&quot;&gt;EDIB_Datenbox.xml&lt;/span&gt;&lt;span style=&quot;font-size: 22px; font-family: &amp;quot;segoe ui&amp;quot;, sans-serif;&quot;&gt;&lt;/span&gt;&lt;/p&gt;&lt;/div&gt;&lt;/font&gt;" style="rounded=0;whiteSpace=wrap;html=1;fontSize=22;" vertex="1" parent="1">
          <mxGeometry x="-130" y="160" width="1030" height="180" as="geometry" />
        </mxCell>
        <mxCell id="VxGcLPcYC0vzYLZDV8K8-5" value="" style="edgeStyle=orthogonalEdgeStyle;rounded=0;orthogonalLoop=1;jettySize=auto;html=1;fontSize=22;" edge="1" parent="1" source="VxGcLPcYC0vzYLZDV8K8-4" target="BdOayHVXuTlcWGNxm3zI-8">
          <mxGeometry relative="1" as="geometry" />
        </mxCell>
        <mxCell id="VxGcLPcYC0vzYLZDV8K8-4" value="Xuan, Pakete erstellen" style="rounded=0;whiteSpace=wrap;html=1;fontSize=22;" vertex="1" parent="1">
          <mxGeometry x="252.5" y="-330" width="265" height="70" as="geometry" />
        </mxCell>
        <mxCell id="VxGcLPcYC0vzYLZDV8K8-7" value="" style="edgeStyle=orthogonalEdgeStyle;rounded=0;orthogonalLoop=1;jettySize=auto;html=1;fontSize=22;" edge="1" parent="1" source="VxGcLPcYC0vzYLZDV8K8-6" target="VxGcLPcYC0vzYLZDV8K8-4">
          <mxGeometry relative="1" as="geometry" />
        </mxCell>
        <mxCell id="VxGcLPcYC0vzYLZDV8K8-6" value="Florian Service bauen" style="rounded=0;whiteSpace=wrap;html=1;fontSize=22;" vertex="1" parent="1">
          <mxGeometry x="257.5" y="-480" width="255" height="70" as="geometry" />
        </mxCell>
        <mxCell id="VxGcLPcYC0vzYLZDV8K8-9" value="" style="edgeStyle=orthogonalEdgeStyle;rounded=0;orthogonalLoop=1;jettySize=auto;html=1;fontSize=22;" edge="1" parent="1" source="VxGcLPcYC0vzYLZDV8K8-8" target="VxGcLPcYC0vzYLZDV8K8-6">
          <mxGeometry relative="1" as="geometry" />
        </mxCell>
        <mxCell id="VxGcLPcYC0vzYLZDV8K8-8" value="IT Server bauen" style="rounded=0;whiteSpace=wrap;html=1;fontSize=22;" vertex="1" parent="1">
          <mxGeometry x="282.5" y="-644" width="205" height="60" as="geometry" />
        </mxCell>
      </root>
    </mxGraphModel>
  </diagram>
</mxfile>
